# xmcd CD database file
#
# Track frame offsets:
#	150
#	21247
#	37517
#	62027
#	79822
#	99270
#	120557
#	132607
#	150007
#	169587
#	186785
#	209102
#	225197
#	243462
#	260872
#	281370
#	304737
#
# Disc length: 4347 seconds
#
# Revision: 0
# Processed by: cddbd v1.5PL3 Copyright (c) Steve Scherf et al.
# Submitted via: CDex 1.50beta8
#
DISCID=d910f911
DTITLE=MOONRIDERS - かしぶち哲郎SONGBOOK
DYEAR=1900
DGENRE=Rock
TTITLE0=砂丘
TTITLE1=Beep Beep Be オーライ
TTITLE2=ハバロフスクを訪ねて
TTITLE3=オールド・レディー
TTITLE4=トラベシア
TTITLE5=バック・シート
TTITLE6=狂ったバカンス
TTITLE7=スカーレットの誓い
TTITLE8=気球と通信
TTITLE9=二十世紀鋼鉄の男
TTITLE10=S・E・X(個人調査)
TTITLE11=D/P(ダム/パール)
TTITLE12=さなぎ
TTITLE13=Frou Frou
TTITLE14=CLINIKA
TTITLE15=プラトーの日々
TTITLE16=ガールハント
EXTD=
EXTT0=
EXTT1=
EXTT2=
EXTT3=
EXTT4=
EXTT5=
EXTT6=
EXTT7=
EXTT8=
EXTT9=
EXTT10=
EXTT11=
EXTT12=
EXTT13=
EXTT14=
EXTT15=
EXTT16=
PLAYORDER=
